<?xml version="1.0" encoding="UTF-8"?>
<svg width="752pt" height="752pt" version="1.1" viewBox="0 0 752 752" xmlns="http://www.w3.org/2000/svg">
 <path d="m549.3 349.51-88.797 88.797h0.003906c-14.539 14.602-34.301 22.805-54.906 22.789-16.508-0.035156-32.594-5.207-46.027-14.801-16.348-11.945-27.363-29.824-30.684-49.801-3.3203-19.973 1.3203-40.457 12.926-57.051 3.0664-4.3359 8.2109-6.7031 13.5-6.2148 5.2891 0.48828 9.9141 3.7578 12.137 8.582 2.2188 4.8242 1.6992 10.465-1.3672 14.801-9.3555 13.215-11.383 30.27-5.3906 45.309 5.9922 15.043 19.191 26.027 35.07 29.191 15.879 3.1602 32.277-1.9297 43.578-13.527l88.797-88.797v0.003907c9.0195-8.9727 14.09-21.172 14.09-33.891 0-12.723-5.0703-24.922-14.09-33.891-9.1367-8.707-21.273-13.562-33.891-13.562-12.621 0-24.754 4.8555-33.891 13.562l-37.738 37.738c-3.7539 3.7539-9.2266 5.2188-14.355 3.8438s-9.1328-5.3789-10.508-10.508c-1.375-5.1289 0.09375-10.598 3.8477-14.352l37.738-37.738c19.832-18.48 47.859-25.289 73.957-17.965 26.098 7.3242 46.496 27.719 53.816 53.816 7.3242 26.098 0.51562 54.129-17.961 73.957zm-220.07 103.6-37.738 37.738v-0.003906c-12.223 11.512-29.574 15.793-45.746 11.285-16.176-4.5078-28.812-17.145-33.32-33.316-4.5078-16.176-0.22656-33.527 11.285-45.75l88.797-88.797c11.297-11.594 27.699-16.684 43.578-13.523 15.879 3.1641 29.078 14.148 35.07 29.191 5.9922 15.039 3.9609 32.09-5.3906 45.309-3.0664 4.3359-3.5859 9.9766-1.3672 14.801 2.2227 4.8242 6.8477 8.0938 12.137 8.582 5.2891 0.48828 10.434-1.8828 13.5-6.2188 14.777-21.391 17.852-48.766 8.1875-72.902-9.668-24.141-30.785-41.824-56.246-47.105-25.457-5.2812-51.867 2.5508-70.336 20.852l-88.797 88.797c-18.477 19.832-25.285 47.863-17.965 73.961 7.3242 26.098 27.719 46.492 53.82 53.816 26.098 7.3242 54.125 0.51562 73.957-17.965l37.738-37.738c3.7539-3.7539 5.2188-9.2266 3.8477-14.352-1.375-5.1289-5.3828-9.1367-10.508-10.508-5.1289-1.375-10.602 0.089843-14.355 3.8438z"/>
</svg>
